Coordinates
version=1
nRows=7
nColumns=63
inDegrees=yes

Units are S.I. units (second, meters, Newtons, ...)
If the header above contains a line with 'inDegrees', this indicates whether rotational values are in degrees (yes) or radians (no).

endheader
time	pelvis_tilt	pelvis_list	pelvis_rotation	pelvis_tx	pelvis_ty	pelvis_tz	hip_flexion_r	hip_adduction_r	hip_rotation_r	knee_angle_r	knee_angle_r_beta	ankle_angle_r	subtalar_angle_r	mtp_angle_r	hip_flexion_l	hip_adduction_l	hip_rotation_l	knee_angle_l	knee_angle_l_beta	ankle_angle_l	subtalar_angle_l	mtp_angle_l	L5_S1_Flex_Ext	L5_S1_Lat_Bending	L5_S1_axial_rotation	L4_L5_Flex_Ext	L4_L5_Lat_Bending	L4_L5_axial_rotation	L3_L4_Flex_Ext	L3_L4_Lat_Bending	L3_L4_axial_rotation	L2_L3_Flex_Ext	L2_L3_Lat_Bending	L2_L3_axial_rotation	L1_L2_Flex_Ext	L1_L2_Lat_Bending	L1_L2_axial_rotation	L1_T12_Flex_Ext	L1_T12_Lat_Bending	L1_T12_axial_rotation	Abs_r3	Abs_r2	Abs_r1	Abs_t1	Abs_t2	neck_flexion	neck_bending	neck_rotation	arm_flex_r	arm_add_r	arm_rot_r	elbow_flex_r	pro_sup_r	wrist_flex_r	wrist_dev_r	arm_flex_l	arm_add_l	arm_rot_l	elbow_flex_l	pro_sup_l	wrist_flex_l	wrist_dev_l
      1.71666667	     -2.40068409	     -2.24734769	     92.30223827	      0.28427696	      0.70107577	      0.88384620	     -2.59612868	     -1.27267975	      2.26114936	      2.46754443	      0.04306677	     17.99411658	      6.91496589	      0.00000000	     -1.67266325	      1.85325105	     -6.32710639	      5.25561276	      0.09172775	     19.65751571	      0.58659461	      0.00000000	      0.03661812	      0.11029041	      1.54121080	      0.06800350	      0.14668624	      1.63753648	      0.06015990	      0.26816009	      1.63753648	      0.04185085	      0.26816009	      1.34855945	      0.03400358	      0.22490419	      1.25223378	      0.02092359	      0.17083984	      1.15590810	      0.26155954	      1.24762712	      8.57175213	      0.00000000	      0.00000000	     26.89824737	      4.97902019	     -3.75824984	      1.52577162	    -15.33186975	     52.77590304	     28.97387166	     62.57907556	     -1.35886839	     -2.89153531	      0.15870639	    -21.76969616	     53.78528138	     42.23464634	     87.45249102	     -1.90962266	      8.41388930
      1.73333333	     -2.40078483	     -2.25371169	     92.76108702	      0.28402071	      0.70080815	      0.88431039	     -2.61438770	     -1.23639889	      1.58519977	      2.47195483	      0.04314375	     18.07808310	      7.36515345	      0.00000000	     -0.94551486	      1.53196113	     -9.45306507	      6.81543424	      0.11895177	     21.14759225	      5.08289043	      0.00000000	      0.03118068	      0.10432431	      1.47464981	      0.05790564	      0.13875133	      1.56681543	      0.05122674	      0.25365412	      1.56681543	      0.03563640	      0.25365412	      1.29031859	      0.02895438	      0.21273813	      1.19815297	      0.01781664	      0.16159835	      1.10598736	      0.22272049	      1.18013745	      8.20155987	      0.00000000	      0.00000000	     26.46014147	      3.78969638	     -5.04168484	      2.25942441	    -15.25319649	     55.69384393	     28.23586651	     60.05625447	     -1.68703202	     -4.52219911	      0.75554017	    -21.85566731	     55.41382791	     41.72523176	     87.47391878	     -3.38178063	      5.78794740
      1.75000000	     -2.50041647	     -2.19095256	     92.89030932	      0.28434154	      0.70072788	      0.88415283	     -2.73333289	     -1.30212620	      1.29332615	      2.44777200	      0.04272168	     18.20861878	      7.62361336	      0.00000000	     -0.62881047	      1.40986005	    -11.10553248	      7.75843659	      0.13541026	     21.89425003	      7.27692375	      0.00000000	      0.02268890	      0.08508060	      1.45178174	      0.04213556	      0.11315720	      1.54251810	      0.03727559	      0.20686497	      1.54251810	      0.02593114	      0.20686497	      1.27030902	      0.02106891	      0.17349636	      1.17957266	      0.01296444	      0.13178985	      1.08883630	      0.16206454	      0.96244874	      8.07437449	      0.00000000	      0.00000000	     26.02246065	      3.53090446	     -5.48396961	      2.42088635	    -15.14407160	     55.58367257	     28.50489273	     60.08311915	     -1.75688870	     -4.73590589	      0.78171721	    -21.86445682	     54.83967675	     41.77440459	     87.41935123	     -2.59429895	      5.62270160
      1.76666667	     -2.59022023	     -2.08998096	     92.97410817	      0.28478840	      0.70099800	      0.88377122	     -2.89087280	     -1.35028121	      1.18309827	      2.47457090	      0.04318941	     18.32509465	      7.57871413	      0.00000000	     -0.55614753	      1.41390046	    -11.21639011	      8.21237975	      0.14333307	     21.95764789	      7.28040182	      0.00000000	      0.01567344	      0.06370724	      1.44581113	      0.02910714	      0.08473063	      1.53617432	      0.02574989	      0.15489778	      1.53617432	      0.01791317	      0.15489778	      1.26508474	      0.01455435	      0.12991180	      1.17472154	      0.00895580	      0.09868251	      1.08435835	      0.11195378	      0.72066902	      8.04116775	      0.00000000	      0.00000000	     25.52765522	      3.65562775	     -5.68420954	      2.55702043	    -15.21770483	     55.35510584	     29.33163826	     60.03616178	     -1.64750632	     -4.85741027	      0.82210823	    -21.97979078	     54.52762634	     42.13172030	     87.21847691	     -2.55415579	      5.50974632
      1.78333333	     -2.66689994	     -2.15111468	     93.47063388	      0.28497057	      0.70102688	      0.88332751	     -2.91477675	     -1.38295990	     -0.13713887	      2.55610997	      0.04461254	     18.65687337	      8.68082377	      0.00000000	     -0.12043699	      1.17028869	    -13.14373250	      9.16016488	      0.15987504	     22.74188587	     10.40314268	      0.00000000	      0.02952213	      0.02886368	      1.37412241	      0.05482555	      0.03838870	      1.46000506	      0.04850191	      0.07017915	      1.46000506	      0.03374084	      0.07017915	      1.20235711	      0.02741425	      0.05885882	      1.11647446	      0.01686894	      0.04470984	      1.03059180	      0.21087361	      0.32651174	      7.64245659	      0.00000000	      0.00000000	     25.44843418	      3.74703911	     -6.71366799	      1.44663991	    -15.01643012	     49.39171601	     31.50389825	     65.06610844	     -0.99361910	     -2.50307524	     -0.03554404	    -22.02408113	     50.90202247	     43.25905845	     86.89624344	      0.00567814	      7.04463321
      1.80000000	     -2.76323949	     -2.10571798	     93.91500359	      0.28505611	      0.70143249	      0.88279346	     -3.08683404	     -1.42544796	     -0.73554781	      2.57479677	      0.04493868	     18.73156699	      8.80192295	      0.00000000	     -0.02810279	      1.15435012	    -13.11464041	      9.52224595	      0.16619454	     22.78276309	     10.83457043	      0.00000000	      0.03144913	     -0.00835457	      1.29774429	      0.05840419	     -0.01111158	      1.37885331	      0.05166778	     -0.02031331	      1.37885331	      0.03594322	     -0.02031331	      1.13552626	      0.02920367	     -0.01703665	      1.05441724	      0.01797004	     -0.01294123	      0.97330822	      0.22463802	     -0.09450861	      7.21766444	      0.00000000	      0.00000000	     25.21807954	      4.05530271	     -7.58938165	      0.60020669	    -15.27045693	     45.96685856	     34.44803442	     67.54084622	     -0.82386233	     -0.57770848	     -0.87289443	    -22.20284070	     47.69545010	     44.97598645	     85.98373968	      1.67699527	      8.96480578
      1.81666667	     -2.86663553	     -2.09266710	     94.40179368	      0.28495987	      0.70190972	      0.88228455	     -3.21678279	     -1.48989656	     -1.47504064	      2.63067562	      0.04591395	     18.76184756	      9.09590294	      0.00000000	      0.05445127	      1.17658264	    -13.04871410	      9.76093259	      0.17036041	     22.76838160	     11.25552458	      0.00000000	      0.03158898	     -0.04794315	      1.23286845	      0.05866390	     -0.06376438	      1.30992273	      0.05189754	     -0.11656896	      1.30992273	      0.03610305	     -0.11656896	      1.07875989	      0.02933353	     -0.09776566	      1.00170561	      0.01804995	     -0.07426393	      0.92465134	      0.22563695	     -0.54234245	      6.85684444	      0.00000000	      0.00000000	     25.09760297	      4.48946111	     -8.48590044	     -1.44399997	    -15.31554630	     38.94102747	     38.63123189	     73.77724156	      0.60631499	      2.31129918	     -1.82310626	    -22.43429860	     44.35457552	     47.11979020	     85.18487128	      3.03092533	     10.10941896
